/* XPM */
static char * Cliff_xpm[] = {
"112 144 37 1",
" 	c None",
".	c #8D8C75",
"+	c #A3A491",
"@	c #C2CCB3",
"#	c #C9D9BF",
"$	c #D9E8D0",
"%	c #C3D185",
"&	c #B1D354",
"*	c #B9BCAA",
"=	c #6F6E6C",
"-	c #C3D657",
";	c #B4BAA5",
">	c #646464",
",	c #93674D",
"'	c #E2AD6E",
")	c #D3A061",
"!	c #171717",
"~	c #50391C",
"{	c #BC8B4D",
"]	c #4D4D47",
"^	c #92917B",
"/	c #979782",
"(	c #A1A28D",
"_	c #A5A991",
":	c #9E9E8A",
"<	c #ADAF9C",
"[	c #ABAE9A",
"}	c #969580",
"|	c #B78356",
"1	c #A5734D",
"2	c #CFBF82",
"3	c #D4D69A",
"4	c #805A42",
"5	c #D9D48C",
"6	c #CBD66F",
"7	c #C9AD77",
"8	c #CEA272",
"                                                                                                                ",
"                                                    .........       .........                                   ",
"                                                  ..+@#@$$@++.    ..+%&&&&%++.                                  ",
"                                                 .#@*#$#$$#*@@.  .&&*&&&&&&*&%.                                 ",
"                                                .*##*$$$$##@@@*=.*%&*-&&&&&&&-*=                                ",
"                                                .+*#*$$$###*@@+..+*%*--&&--*&%+.                                ",
"                                                .=**+@#*##@+++=..=**+%----%+++=.                                ",
"                +++.      +++...                ==.+**@+@@**+..===.+**%+%%**+..=                                ",
"           ...++@##@...==.@####@+...            =.+#@**+.+@@**+.=.+&%**+.+&&%%+.                                ",
"         ++@@########@@##@########@+..          =.+##@*+.+@@@*+==.%&&%*+.+&&&%+=                                ",
"       .+*@##&&%%%%@@@%%&&@@&&&%%##@*...        .++@##+...***+.=.+%&&&+...%&%+.=                                ",
"      .+@@@#&&&&%%&&&%%%&&&&&&&%%%%##@*..       .++***=.++++...=.++%%%=.++++...=                                ",
"     .+;@@;#&&&&&&&&&&&&&&&&&&%%&%%##@**..      =++++==++++++=.==++++==++++++=.=                                ",
"    .+*;++##%%&&&&&&&&&&&&&&&&%%&%%&#+**+..     =.++.=.++++++== =.++.=.++++++==                                 ",
"    .+*++@#%%%&&&&&&&&&&&&&&&&&&&&&&#*+++*..     =..==...+++==   =..==...+++==                                  ",
"   .+++++@#%%&&&&&&&&&&&&&&&&&&&&&&&#@*++*;.>        ==....==        ==....==                                   ",
"   .+*+;+#@%%&&&&&&&&&&&&&&&&&&&&&&&%#@+++*+=   -----%%------%%%-----%%------%%%                                ",
"   =+**@+@;@@%&&&&&&&&&&&&&&&&&&&&&&%%@;+.++=   ----%%%%%---%%%%----%%%%%---%%%%                                ",
"   =.+#@@@*@%%&&&&&&&&&&&&&&&&&&&&&%%%@;*+.+.   #####@%%%--@#########@%%%--@####                                ",
"   =.+##@;*#%%%&&&&&&&&&&&&&&&&&&&&%%%@@@*...   +@###@#$$$####*++@###@#$$$####*+                                ",
"  ..+*@#@**#%%&&&&&&&&&&&&&&&&&&&&&%%#@@@;++..  +*@@#@@@@@@***+++*@@#@@@@@@***++                                ",
"  =+@*;@;*##&&&&&&&&&&&&&&&&&&&&&&&&##@*@++++=  +***+*****+**++++***+*****+**+++                                ",
"  =+@@+@+;#%&&&&&&&&&&&&&&&&&&&&&&%&#;+**++.+=  +**++****++++*+++***+*****+++*++                                ",
"  =*@@+*+*#%%&&&&&&&&&&&&&&&&&&&&%%%@@++++;+.=  ++*,,,,,,,,,,*++++*+.+****.+@*++                                ",
"  .**@++**#%%&&&&&&&&&&&&&&&&&&&&%%@@@*++;@@+=  +@@,')''')'),@.++@@@.++**+.+@@.+                                ",
"  .++*++@;@&&&&&&&&&&&&&&&&&&&&&&&%@@;@+.;@;+=  **@,')''')'),+.+**@*+.!!!!.+*+.+                                ",
"  .++++*@;*@&&&&&&&&&&&&&&&&&&&&&&&&@;@*..;++.  ***~,,,,,,,,~+.=***++!!!!!!.++.=                                ",
"  .++.+@@**@&&&&&&&&&&&&&&&&&&&&&&&&&@@#+..++.  +++,{.!!!!.{,.==+++++!!!!!!....=                                ",
"   .=+*@@*;@&&&&&&&&&&&&&&&&&&&&&&%%&@##;++=.   .++,).!!!!.),.==.+++.!!!!!!....=                                ",
"    =+@@*@@%&&&&&&&&&&&&&&&&&&&&&&%%%##;;;+=    =..,).]]]].),.===....]]]]]]...==                                ",
"    .*@@*#@%%&&&&&&&&&&&&&&&&&&&&&%%%#+;;;+.     ==,)      ),==  ====      ====                                 ",
"   .+@@*###%%%&&&&&&&&&&&&&&&&&&&&%%@#++;+;+.                                                                   ",
"   =+@**@@##%%&&&&&&&%%&&&&&&%%%&&%@@#@+++;;=      .+*+;+#@%%&&&&&&%%@#+;+*+.                                   ",
"  =.***@##@#%%&&&&&&%%%%%&&&%%%%%&@*##@++.;;.=     =+**@+@;@@%&&&&%@@;@+@**+=                                   ",
"  =+**+####@##@*#####@%%%&&@####*#######@+.;.=     =.+#@@@*@%%&&&&%%@*@@@#+.=                                   ",
"  =***+####+@@**+@###@#$$$####*+**@@+##@@+.+.=     =.+##@;*#%%%&&%%%#*;@##+.=                                   ",
"  .+*++@##*+++**+*@@#@@@@@@***+++++++**;*++...    ..+*@#@**#%%&&&&%%#**@#@*+..                                  ",
"  .=++**@@+.+**++***+*****+**++++**+.+**++*.=.    =+**;@;*##&&&&&&&&##*;@;**+=                                  ",
"  .=+#@**+.+@@*++***+*****+++*+++*@@+.+++*@*=.    =+**+@.;#%&&&&&&&&%#;.@+**+=                                  ",
"  =.+##@*..+@@@+++*++***@@@+@*+++@@@+..+*@@*.=    =++*+.+*#%%&&&&&&%%#*+.+*++=                                  ",
"  =++@##+...**+++@@@.+*@@@++@@.+++**...*@@*++=  ++......**#%%&&&&&&%%#**......++            .+++++.             ",
"  .++***...+++.+**@*+.++++.+*+.++.+++...**+++.  *@@@@*++@;@&&&&&&&&&&@;@++*@@@@*          ^/@@#$$#@/^           ",
"  .+++*.=.+++...***++.++++..++.=...+++.=.++++.  %&&%%%%%&%%%&&&&&&&&%%%&%%%%%&&%         /(@@#$$$$#@*/          ",
"  ..+++==.+++...+++++.+++...+.==...+++.==+++.   &&&&&%%&&&&&&&&&&&&&&&&&&%%&&&&&        ^_@@#$$$$$$@@@:         ",
"   .++.=.+++..=..+++..+++.....==+=..+++.=.++.   &&&&&&&&&&&&&&&&&&&&&&&&&&&&&&&&       =*@@;$$$$$$$;@@;=        ",
"    .===++++.====.....+++...=.=====.++++===.    &&&&&&&&&&&&&&&&&&&&&&&&&&&&&&&&      =<**+@$$$$$$$#++;*=       ",
"       ========  ====......====  ========       &&&&&&&&&&&&&&&&&&&&&&&&&&&&&&&&      .<[+@@$$##$$$#@++*.       ",
"                     ======                     &&&&&&&&&&&&&&&&&&&&&&&&&&&&&&&&     =..++@####$$$$#@++..=      ",
"                                                &&&&&&&&&&&&&&&&&&&&&&&&&&&&&&&&    =+##*@@###$$$$##@@*##+=     ",
"                                                &&&&&&&&&&&&&&&&&&&&&&&&&&&&&&&&   =.*@#@##@#######@##@@@*.=    ",
"                                                @%%%%&&&&&&&&&&&&&&&&&&&&&&%%%%@   =+**+####@##@##@####+**+=    ",
"                                                ;@@%%%&&&&&&&&&&&&&&&&&&&&%%%@@;   =++*+####+@@*@@+####+***=    ",
"                                                +;@@@%&&&&&&&&&&&&&&&&&&&&%@@@;+   .++.+@##*+++*+++*##@+.*+.    ",
"                                                .+;;;;@%%%&&&&&&&&&&&&%%%@;;;;+.   .=..**@@+.+***+.+@@**..=.    ",
"                                                ..++.;#@%%%%%&&&&&&%%%%%@#;.++..   .=.#@**+.+*@@@*+.+**@#.=.    ",
"                +++.      +++...                ....+;#@@%%%&&&&&&&&%%%@@#;+....   =.+##@*..+@@@@@+..*@##+.=    ",
"           ...++@##@...==.@####@+...            ..+++;;##%&&&&&&&&&&&&%##;;+++..   =++@##+...*****...+##@++=    ",
"         ++@@########@@##@########@+..          +@@;++;;@@%&&&&&&&&&&%@@;;++;@@+   .++***...+++++++...***++.    ",
"       .+*@##--%%%%@@@%%--@@---%%##@*...        ++@@;.+;;++%&&&&&&&&%++;;+.;@@++   .+++*.=.**++++***.=.*+++.    ",
"      .+@@@#----%%---%%%-------%%%%##@*..       .+++.;;+++@%%&&&&&&%%@+++;;.+++.   ..+++==.+**..***+.==+++..    ",
"     .+;@@;#------------------%%-%%##@**..      .++.+;;;+@@%&&&&&&&&%@@+;;;+.++.    .++.=.+++..=..+++.=.++.     ",
"    .+*;++##%%----------------%%-%%-#+**+..     ==.+++..+@@&&&&&&&&&&@@+..+++.==     .===++++.===.++++===.      ",
"    .+*++@#%%%----------------------#*+++*..      =++...;@@&&&&&&&&&&@@;...++=          ===============         ",
"   .+++++@#%%-----------------------#@*++*;.>      =....+;@&&&&&&&&&&@;+....=                                   ",
"   .+*+;+#@%%-----------------------%#@++++.=      .+*+;+#@%%------%%@#+;+*+.      =**+@*...        ...*@+**=   ",
"   =+**@+@;@@%----------------------%%@;+.++=      =+**@+@;@@%----%@@;@+@**+=      =**...+@@        @@+...**=   ",
"   =.+#@@@*@%%---------------------%%%@;*+.+.      =.+#@@@*@%%----%%@*@@@#+.=      ===.@*+@@        @@+*@.===   ",
"   =.+##@;*#%%%--------------------%%%@@@*...      =.+##@;*#%%%--%%%#*;@##+.=      .@*}@@.@@        @@.@@}*@.   ",
"  ..+*@#@**#%%---------------------%%#@@@;++..    ..+*@#@**#%%----%%#**@#@*+..     .@@}@@}**        **}@@}@@.   ",
"  =+@*;@;*##------------------------##@*@++++=    =+**;@;*##--------##*;@;**+=     .@@}@@}@*        *@}@@}@@.   ",
"  =+@@+@+;#%----------------------%-#;+**++.+=    =+**+@.;#%--------%#;.@+**+=     }++}**}@@        @@}**}++}   ",
"  =*@@+*+*#%%--------------------%%%@@++++;+.=    =++*+.+*#%%------%%#*+.+*++=     }*+.++}@@        @@}++.+*}   ",
"  .**@++**#%%--------------------%%@@@*++;@@+=  ++......**#%%------%%#**......++   }**.@*+@@        @@+*@.**}   ",
"  .++*++@;@-----------------------%@@;@+.;@;+=  *@@@@*++@;@----------@;@++*@@@@*   }**.@@+@@        @@+@@.**}   ",
"  .++++*@;*@------------------------@;@*..;++.  %--%%%%%-%%%--------%%%-%%%%%--%   }@*}@@+**        **+@@}*@}   ",
"  .++.+@@**@-------------------------@@#+..++.  -----%%------------------%%-----   }@*}@@}**        **}@@}*@}   ",
"   .=+*@@*;@----------------------%%-@##;++=.   --------------------------------   }@@}@@.@@        @@.@@}@@}   ",
"    =+@@*@@%----------------------%%%##;;;+=    --------------------------------   .@@.*@...        ...@*.@@.   ",
"    .*@@*#@%%---------------------%%%#+;;;+.    --------------------------------   .@*....@@        @@....*@.   ",
"   .+@@*###%%%--------------------%%@#++;+;+.   --------------------------------   ===.++@@@        @@@++.===   ",
"   =+@**@@##%%-------%%------%%%--%@@#@+++;;=   --------------------------------                                ",
"  =.***@##@#%%------%%%%%---%%%%%-@*##@++.;;.=  --------------------------------                                ",
"  =+**+####@##@*#####@%%%--@####*#######@+.;.=  @%%%%----------------------%%%%@.@*+**@@@@@@**@.                ",
"  =***+####+@@**+@###@#$$$####*+**@@+##@@+.+.=  ;@@%%%--------------------%%%@@;.@@+*@@@@@@@**@.                ",
"  .+*++@##*+++**+*@@#@@@@@@***+++++++**;*++...  +;@@@%--------------------%@@@;+=}}.}+*****++}.=                ",
"  .=++**@@+.+**++***+*****+**++++**+.+**++*.=.  .+;;;;@%%%------------%%%@;;;;+.=...}}}}}}}}...=                ",
"  .=+#@**+.+@@*++***+*****+++*+++*@@+.+++*@*=.  ..++.;#@%%%%%------%%%%%@#;.++..=*@@@***+*@@@@@==...}}}}}}}}}..=",
"  =.+##@*..+@@@+++*++***@@@+@*+++@@@+..+*@@*.=  ....+;#@@%%%--------%%%@@#;+....=@@@@@**+@@@@@*==@@@@@+***@@@@@=",
"  =++@##+...**+++@@@.+*@@@++@@.+++**...*@@*++=  ..+++;;##%------------%##;;+++..=}***++}}+***+}==.}}}}}}...}}}.=",
"  .++***...+++.+**@*+.++++.+*+.++.+++...**+++.  +@@;++;;@@%----------%@@;;++;@@+=.}}}}}}...}}}.==@@@@@**+@@@@@*=",
"  .+++*.=.+++...***++.++++..++.=...+++.=.++++.  ++@@;.+;;++%--------%++;;+.;@@++=*@@@*++****@@*==...}}}}}}}}...=",
"  ..+++==.+++...+++++.+++...+.==...+++.==+++.   .+++.;;+++@%%------%%@+++;;.+++.=@@@@@+***@@@@@=.@@+*@@@@@@@**@.",
"   .++.=.+++..=..+++..+++.....==.=..+++.=.++.   .++.+;;;+@@%--------%@@+;;;+.++.=.++++}}+****+}=.@*+**@@@@@@**@.",
"    .===++++.====.....+++...=.=====.++++===.    ==.+++..+@@----------@@+..+++.===...}}}}}}}}}..=                ",
"       ========  ====......====  ========         =++...;@@----------@@;...++=                                  ",
"                     ======                        =....+;@----------@;+....=                                   ",
"                                                                                                                ",
"                                                                                                                ",
"                                                                                                                ",
"                                                                                                                ",
"                                                                                                                ",
"                                                                                                                ",
"                                                                                                                ",
"                |||1      |||111                                                                                ",
"           111||2332111441253332|111                                                                            ",
"          |225533335552552555333552|11                                                                          ",
"         1255--663665566--22---665527111                                                                        ",
"        1|25----66---666-------6663352711                                                                       ",
"       1|885------------------66-63352711                                                                       ",
"      1|785366----------------66-66-5|711                                                                       ",
"      1|7|3366----------------------57|711                                                                      ",
"     1||||566-----------------------5277814                                                                     ",
"     1|7|8266-----------------------652||14        1|7|8|5266------6625|8|7|1      422852111        111258224   ",
"     4|7728226----------------------6321||4        4|772|23223----63332|277|4      422111855        558111224   ",
"     41|527266---------------------3332|1|1        41|52233233----63332225|14      444152855        558251444   ",
"     41|5575666--------------------33327111        41|552333366--666533255|14      152|55155        55155|251   ",
"    11|7257566---------------------63528||11      11|725233566----665332527|11     155|55|22        22|55|551   ",
"    4|278235------------------------552||||4      4|77828755--------55382877|4     155|55|52        25|55|551   ",
"    4|22|233----------------------6-58|||1|4      4|77|21856--------65812|77|4     |88|22|55        55|22|88|   ",
"    4722|7336--------------------66652||8|14      4||7|1|7566------6657|1|7||4     |28188|55        55|88182|   ",
"    1772||536--------------------665527822|4    ||11111173366------66337111111||   |22152855        55825122|   ",
"    1||7||2-----------------------65552828|4    722227||233----------332||733227   |22155855        55855122|   ",
"    1||||772------------------------55218||1    6--66666-666--------666-66336--6   |52|55822        22855|25|   ",
"    1||1|272-------------------------2211||1    -----66------------------66-----   |52|55|22        22|55|25|   ",
"     14|7282----------------------66-25||41     --------------------------------   |55|55155        55155|55|   ",
"      4|2226----------------------636558|4      --------------------------------   155125111        111521551   ",
"      1722263---------------------3335|8|1      --------------------------------   152111155        551111251   ",
"     1|2273336--------------------3325||8|1     --------------------------------   444188555        555881444   ",
"     4|2773336-------66------666--62252|884     --------------------------------                                ",
"    4177722536------66666---66666-2755218814    --------------------------------                                ",
"    4|77|5525527533552333--253357555555|1814    26666----------------------663321528225555552251                ",
"    4777|55|2277|23352332773337|7722|55|1|14    822666--------------------6633281558255555552251                ",
"    14|5271|227||777|77777|||7|||722|1|72741    |82226--------------------62228|4||1|82222288|14                ",
"    41|5521|222|||7||777222|27|||222|1122714    1|88882666------------66338888|14111||||||||1114                ",
"    4||2551177|||2221|7222||221|||7711127||4    11||185336666------666633581||1142555222825555544111|||||||||114",
"    1||7771|||1|7727|1||||1|7|1||1|||117|||4    1111|8533366--------6663358|111145555522855555244555558222555554",
"    1|||71|||111777||1||||11||14111|||1||||4    1|228||556------------655||822|14|22288||82228|441||||||111|||14",
"    11||14||11411|||11|||1111144141||||1||4     4||22818226----------62281822||141||||||111|||144555552285555524",
"      1444||1444411111|||11141444441||1444      41|||1888||6--------6|||881|||1442555288222255244111||||||||1114",
"        4444444  44441111114444  4444444         4||1|8|||266------662|888|1||4 45555582225555541558255555552251",
"                     444444                      441|||8|226--------62211|||14  418888||822228|41528225555552251",
"                                                   4||11|22----------22111||4   4111|||||||||114                ",
"                                                    4111822----------2211114                                    ",
"                                                     411|82----------28|1114                                    "};
