/* XPM */
static char * collect_xpm[] = {
"16 16 19 1",
" 	c #B6B37B",
".	c #171717",
"+	c #6A4632",
"@	c #DDAA6B",
"#	c #BB8C5D",
"$	c #A6A69E",
"%	c #F8C484",
"&	c #DADADA",
"*	c #93674D",
"=	c #46443C",
"-	c #656256",
";	c #FFFFFF",
">	c #EA603D",
",	c #81171A",
"'	c #52101A",
")	c #DA180F",
"!	c #FD8B5A",
"~	c #FDC177",
"{	c #A31C1A",
"     ......     ",
"    .+@##@+.    ",
"   .$@%#@@@$.   ",
"   .&%%%%%%&.   ",
"   .&*%%%%*&.   ",
"   .&$****$&.   ",
"  .=-&;;;;&-=.  ",
" .-$=-$$$$-=$-. ",
" .$$;;;>>>>,'$. ",
" .&;;;&))))>'&. ",
" .$;;&!~~!>,'$. ",
" .-=',,{{,,'=-. ",
" .--',{{{{,'--. ",
"  .--',{{,'--.  ",
"   .-$&&&&$-.   ",
"    ........    "};
