/* XPM */
static char * exit_xpm[] = {
"16 16 12 1",
" 	c None",
".	c #373737",
"+	c #DFE2E6",
"@	c #D1D5D9",
"#	c #BBBEC2",
"$	c #CED1D5",
"%	c #A0A2A5",
"&	c #93674D",
"*	c #D3A061",
"=	c #BC8B4D",
"-	c #7E7E7E",
";	c #AEB1B4",
" .. .. .. .. .. ",
".++.++.++.++.++.",
".++@++@++@++@++.",
".@@#$$#$$#$$#@@.",
".%%&*&*&*&*&*%%.",
".++=*=*=*=*=*++.",
".++=*=*=*=*=*++.",
".@@=*=*=*=*=*@@.",
".%%=*=*=*=*=*%%.",
".++&++*++&++*++.",
".++#++#++#++#++.",
".$$#$$#$$#$$#$$.",
"..-----..-----..",
" .++;;#..#%%++. ",
" .++%##..###++. ",
" .@@========@@. "};
