/* XPM */
static char * floor_xpm[] = {
"16 16 4 1",
" 	c #B6B37B",
".	c #D4C8A1",
"+	c #AEA975",
"@	c #CAC495",
"                ",
"                ",
"                ",
"                ",
"   .. ++ ..     ",
"    ..+ ..      ",
"     @ @@@++    ",
"        @++     ",
"          ..    ",
"         @.+    ",
"          @     ",
"                ",
"                ",
"                ",
"                ",
"                "};
