/* XPM */
static char * Icons_Essentials_xpm[] = {
"64 64 108 2",
"  	c None",
". 	c #151814",
"+ 	c #171717",
"@ 	c #070707",
"# 	c #120000",
"$ 	c #613F1D",
"% 	c #EFC842",
"& 	c #FFF66C",
"* 	c #474747",
"= 	c #A6D7CB",
"- 	c #CEFCF8",
"; 	c #572F1C",
"> 	c #F9AB47",
", 	c #FFDA66",
"' 	c #3F3221",
") 	c #B1BC7D",
"! 	c #C9E4AB",
"~ 	c #918760",
"{ 	c #A56127",
"] 	c #727372",
"^ 	c #9F4A30",
"/ 	c #6B5C48",
"( 	c #D27344",
"_ 	c #D48C39",
": 	c #8FA197",
"< 	c #382613",
"[ 	c #2A2A2A",
"} 	c #2D190E",
"| 	c #231700",
"1 	c #845021",
"2 	c #5D5D5D",
"3 	c #7C3C26",
"4 	c #554735",
"5 	c #BD7831",
"6 	c #828B86",
"7 	c #B9603A",
"8 	c #7C7455",
"9 	c #6A4632",
"0 	c #DDAA6B",
"a 	c #BB8C5D",
"b 	c #A6A69E",
"c 	c #F8C484",
"d 	c #DADADA",
"e 	c #93674D",
"f 	c #46443C",
"g 	c #656256",
"h 	c #FFFFFF",
"i 	c #EA603D",
"j 	c #81171A",
"k 	c #52101A",
"l 	c #589F01",
"m 	c #2E4B00",
"n 	c #292D00",
"o 	c #00AA75",
"p 	c #005132",
"q 	c #003218",
"r 	c #009ECD",
"s 	c #004761",
"t 	c #002A39",
"u 	c #DA180F",
"v 	c #208200",
"w 	c #00896A",
"x 	c #007CA9",
"y 	c #FD8B5A",
"z 	c #FDC177",
"A 	c #73BE4E",
"B 	c #BEE27A",
"C 	c #00C7A1",
"D 	c #0BE7BB",
"E 	c #00B6F7",
"F 	c #5DC9FF",
"G 	c #A31C1A",
"H 	c #2F6100",
"I 	c #006847",
"J 	c #005D7E",
"K 	c #1B1800",
"L 	c #151813",
"M 	c #E0BC57",
"N 	c #886B29",
"O 	c #CA9542",
"P 	c #FFF673",
"Q 	c #F6E56B",
"R 	c #CC8F63",
"S 	c #F5C473",
"T 	c #FFF097",
"U 	c #A89C7D",
"V 	c #E9F9C6",
"W 	c #CDD09A",
"X 	c #986749",
"Y 	c #FFFBBE",
"Z 	c #F8FFE9",
"` 	c #7A7262",
" .	c #6A3A1A",
"..	c #454843",
"+.	c #253A19",
"@.	c #4E3F1E",
"#.	c #864F30",
"$.	c #5B5E58",
"%.	c #282B26",
"&.	c #326223",
"*.	c #689721",
"=.	c #481C00",
"-.	c #E67C5B",
";.	c #9F9E84",
">.	c #DEFBD3",
",.	c #C0D3A5",
"'.	c #757368",
").	c #F5FFF1",
"        . . . . . . . .                 + + + + + + + +                 @ @ @ @ @ @ @ @                 # # # # # # # #         ",
"      . $ % & & & & % $ .             + * = - - - - = * +             @ ; > , , , , > ; @             # ' ) ! ~ ~ ! ) ' #       ",
"    . { % & & & & & & % { .         + ] = - - - - - - = ] +         @ ^ > , , , , , , > ^ @         # / ) ! ! ! ~ ! ! ) / #     ",
"  . { % % & & & & & & % % { .     + ] = = - - - - - - = = ] +     @ ^ > > , , , , , , > ( ^ @     # / ) ) ! ! ! ! ! ! ) ) / #   ",
". { % % % _ { { { { _ % % % { . + ] = = = : ] ] ] ] : = = = ] + @ ^ > > > ( ^ ^ ^ ^ ( > ( > ^ @ # / ) ) ) ~ / / / / ~ ) ) ) / # ",
". _ % % _ { { < < { { _ % % _ . + : = = : ] ] [ [ ] ] : = = : + @ ( > > ( ^ ^ } } ^ ^ ( > > ( @ # ~ ) ) ~ / / | | / / ~ ) ) ~ # ",
". _ % _ { { < < < < { { _ % _ . + : = : ] ] [ [ [ [ ] ] : = : + @ ( > ( ^ ^ } } } } ^ ^ ( > ( @ # ~ ) ~ / / | | | | / / ~ ) ~ # ",
". _ _ { { < < { { < < { { _ _ . + : : ] ] [ [ ] ] [ [ ] ] : : + @ ( ( ^ ^ } } ^ ^ } } ^ ^ ( ( @ # ~ ~ / / | | / / | | / / ~ ~ # ",
". _ { 1 < < { . . { < < 1 { _ . + : ] 2 [ [ ] + + ] [ [ 2 ] : + @ ( ^ 3 } } ^ @ @ ^ } } 3 ^ ( @ # ~ / 4 | | / # # / | | 4 / ~ # ",
". { 1 1 $ $ { . . { $ $ 1 1 { . + ] 2 2 * * ] + + ] * * 2 2 ] + @ ^ 3 3 ; ; ^ @ @ ^ ; ; 3 3 ^ @ # / 4 4 ' ' / # # / ' ' 4 4 / # ",
". 1 1 1 { $ $ { { $ $ { 1 1 1 . + 2 2 2 ] * * ] ] * * ] 2 2 2 + @ 3 3 3 ^ ; ; ^ ^ ; ; ^ 3 3 3 @ # 4 4 4 / ' ' / / ' ' / 4 4 4 # ",
". < 1 1 1 5 $ $ $ $ 5 $ 1 1 < . + [ 2 2 2 6 * * * * 6 * 2 2 [ + @ } 3 3 3 7 ; ; ; ; 7 ; 3 3 } @ # | 4 4 4 8 ' ' ' ' 8 ' 4 4 | # ",
"  . < 1 $ $ 5 $ $ 5 $ $ $ < .     + [ 2 * * 6 * * 6 * * * [ +     @ } } } ; 7 ; ; 7 ; ; ; } @     # | 4 ' ' 8 ' ' 8 ' ' ' | #   ",
"    . < $ $ $ _ _ $ $ $ < .         + [ * * * : : * * * [ +         @ } ; ; ; ( ( ; ; ; } @         # | ' ' ' ~ ~ ' ' ' | #     ",
"      . < $ $ $ $ $ $ < .             + [ * * * * * * [ +             @ } ; ; ; ; ; ; } @             # | ' ' ' ' ' ' | #       ",
"        . . . . . . . .                 + + + + + + + +                 @ @ @ @ @ @ @ @                 # # # # # # # #         ",
"          + + + + + +                     + + + + + +                     + + + + + +                     + + + + + +           ",
"        + 9 0 a a 0 9 +                 + 9 0 a a 0 9 +                 + 9 0 a a 0 9 +                 + 9 0 a a 0 9 +         ",
"      + b 0 c a 0 0 0 b +             + b 0 c a 0 0 0 b +             + b 0 c a 0 0 0 b +             + b 0 c a 0 0 0 b +       ",
"      + d c c c c c c d +             + d c c c c c c d +             + d c c c c c c d +             + d c c c c c c d +       ",
"      + d e c c c c e d +             + d e c c c c e d +             + d e c c c c e d +             + d e c c c c e d +       ",
"      + d b e e e e b d +             + d b e e e e b d +             + d b e e e e b d +             + d b e e e e b d +       ",
"    + f g d h h h h d g f +         + f g d h h h h d g f +         + f g d h h h h d g f +         + f g d h h h h d g f +     ",
"  + g b f g b b b b g f b g +     + g b f g b b b b g f b g +     + g b f g b b b b g f b g +     + g b f g b b b b g f b g +   ",
"  + b b h h h i i i i j k b +     + b b h h h l l l l m n b +     + b b h h h o o o o p q b +     + b b h h h r r r r s t b +   ",
"  + d h h h d u u u u i k d +     + d h h h d v v v v l n d +     + d h h h d w w w w o q d +     + d h h h d x x x x r t d +   ",
"  + b h h d y z z y i j k b +     + b h h d A B B A l m n b +     + b h h d C D D C o p q b +     + b h h d E F F E r s t b +   ",
"  + g f k j j G G j j k f g +     + g f n m m H H m m n f g +     + g f q p p I I p p q f g +     + g f t s s J J s s t f g +   ",
"  + g g k j G G G G j k g g +     + g g n m H H H H m n g g +     + g g q p I I I I p q g g +     + g g t s J J J J s t g g +   ",
"    + g g k j G G j k g g +         + g g n m H H m n g g +         + g g q p I I p q g g +         + g g t s J J s t g g +     ",
"      + g b d d d d b g +             + g b d d d d b g +             + g b d d d d b g +             + g b d d d d b g +       ",
"        + + + + + + + +                 + + + + + + + +                 + + + + + + + +                 + + + + + + + +         ",
"    + + + + + + + + +   + + +                                           K K K K K K K K                 L L L L L L L L         ",
"  + M N + O P Q N N O + P M +       + + + + +     + + + + +           K R S T T T T S R K             L U V V W W V V U L       ",
"  + Q Q N Q P P M N M O Q Q P +   + G u u u G + + G u u u G +       K R S T T T T T T S R K         L U V V V V W V V V U L     ",
"+ O O M N M Q P Q O O O Q M O + + G i z z i u G G u i i i u G +   K X S T Y T T T T Y T S X K     L U W V Z V V V V Z V W U L   ",
"+ Q M O O O M Q Q M O N O O N + + i z h z i i i i i i i i i u + K X R S Y Y T T T T Y Y S R X K L ` W W Z Z V V V V Z Z W W ` L ",
"+ P P P O O O M M P M N P P P + + i z z i i i i i i i i i i u + K R R S Y Y Y Y Y Y Y Y S R R K L U U W Z Z Z Z Z Z Z Z W W U L ",
"+ O P P M N O O P P P M P P N + + u i i i i i i i i i i i u u + K R R S S Y Y Y Y Y Y S S R R K L U W W V Z Z Z Z Z Z V W U U L ",
"+ N O O O N O P P P M O M O N + + G u u u u u u u u u u u u G + K R R R R R S S S S R R R R R K L U W W W V Z Z Z Z V W W W U L ",
"  + N O O N N P M O O N O O +   + G G u u u G j j G u u u G G + K R R Y K  .R S S R Y K  .R R K L U W ..L ` W W W W ` L ..W U L ",
"  + +.N O N @.M O O O N O +.+     + G G G G j j j j G G G G +   K X R K K K R S S R K K K R X K L ` U L L L U U U U L L L U ` L ",
"  + +.+.N N @.O O O N @.+.+.+       + G G j j k k j j G G +     K #.X  .K  .R R R R  .K  .X #.K L $.` ..L %.U U U U %.L ..` $.L ",
"  + +.&.&.*.*.*.*.*.*.&.&.+.+         + G j j k k j j G +       K =.-.-.-.R R R R R R -.-.-.=.K L %.$.` ` ` ` ` ` ` ` ` ` $.%.L ",
"    + +.&.&.&.*.*.&.&.&.+.+             + u j j j j u +           K =.#.R K X R R X K X #.=.K     L %...` ` %.` ` %.` ` ..%.L   ",
"    + @.@.&.*.*.*.*.&.@.@.+               + u j j u +               K =. .X K K K K X  .=.K         L %...` L ` ` L ` ..%.L     ",
"    + + @.N N N + N N @.+ +                 + i i +                   K =. .X X X X  .=.K             L %...L ....L ..%.L       ",
"        + + + +   + + +                       + +                       K K K K K K K K                 L L L L L L L L         ",
"        + + + + + + + +                 + + + + + + + +                 + + + + + + + +                 + + + + + + + +         ",
"      + ;.>.>.,.,.>.>.;.+       + + + + $ >.>.,.,.>.>.$ + + +   + + + + ] >.>.,.,.>.>.] + + +   + + + + ; >.>.,.,.>.>.; + + +   ",
"    + ;.>.>.>.>.,.>.>.>.;.+     + % & { >.>.>.>.,.>.>.& & % % + + = - : >.>.>.>.,.>.>.- - = = + + > , 3 >.>.>.>.,.>.>., , > > + ",
"  + ;.,.>.>.>.>.>.>.>.>.,.;.+   + & & & >.>.>.>.>.>.>.& & & { + + - - - >.>.>.>.>.>.>.- - - : + + , , , >.>.>.>.>.>.>., , , 3 + ",
"+ '.,.,.>.>.>.>.>.>.>.>.,.,.'.+ + { & & >.>.>.>.>.>.>.% & { $ + + : - - >.>.>.>.>.>.>.= - : ] + + 3 , , >.>.>.>.>.>.>.> , 3 ; + ",
"+ ;.,.,.).).).).).).).).,.,.;.+ + '.;.,.).).).).).).).).'.'.'.+ + '.;.,.).).).).).).).).'.'.'.+ + '.;.,.).).).).).).).).'.'.'.+ ",
"+ ;.,.,.>.).).).).).).>.;.;.;.+ + ;.,.,.>.).).).).).).>.;.;.'.+ + ;.,.,.>.).).).).).).>.;.;.'.+ + ;.,.,.>.).).).).).).>.;.;.'.+ ",
"+ ;.,.,.,.>.).).).).>.,.,.,.;.+ + ;.{ & % >.).).).).>.,.,.,.;.+ + ;.: - = >.).).).).>.,.,.,.;.+ + ;.3 , > >.).).).).>.,.,.,.;.+ ",
"+ ;.;.,.,.,.,.,.,.,.,.,.,.;.;.+ + $ & & & & ,.,.,.,.,.,.% % 2 + + ] - - - - ,.,.,.,.,.,.- - 2 + + ; , , , , ,.,.,.,.,.,.> > 2 + ",
"+ '.;.;.,.,.,.,.,.,.,.,.;.;.'.+ + $ & & & { ;.;.,.,.,.,.{ % % + + ] - - - : ;.;.,.,.,.,.: - - + + ; , , , 3 ;.;.,.,.,.,.3 > > + ",
"+ 2 '.;.;.;.;.;.;.;.;.;.;.'.2 + + $ { { { $ ;.;.;.;.;.;.$ { { + + ] : : : ] ;.;.;.;.;.;.] : : + + ; { { { ; ;.;.;.;.;.;.; 3 3 + ",
"+ [ 2 '.'.'.'.'.'.'.'.'.'.2 [ + + $ $ $ $ * '.'.'.'.'.'.'.* [ + + ] ] ] ] * '.'.'.'.'.'.'.* [ + + ; ; ; ; * '.'.'.'.'.'.'.* [ + ",
"  + [ * * * * * * * * * * [ +     + [ * * * * * * * * * * [ +     + [ * * * * * * * * * * [ +     + [ * * * * * * * * * * [ +   ",
"    + [ * * [ * * * * * [ +         + [ * * [ * * * * * [ +         + [ * * [ * * * * * [ +         + [ * * [ * * * * * [ +     ",
"      + [ [ [ [ * * * [ +             + [ [ [ [ * * * [ +             + [ [ [ [ * * * [ +             + [ [ [ [ * * * [ +       ",
"        + + + + + + + +                 + + + + + + + +                 + + + + + + + +                 + + + + + + + +         "};
