/* XPM */
static char * player_xpm[] = {
"16 16 16 1",
" 	c #B6B37B",
".	c #171717",
"+	c #572E2F",
"@	c #AFB3B1",
"#	c #768C81",
"$	c #4E231E",
"%	c #C16E11",
"&	c #F4F4F4",
"*	c #523525",
"=	c #6E5B2D",
"-	c #61432A",
";	c #674D2B",
">	c #505251",
",	c #443126",
"'	c #60493A",
")	c #AB6835",
"                ",
"  .   ....   .  ",
" .+. .@@@@. .+. ",
" .++.#@@@@#.++. ",
"  .+$######$+.  ",
"   ..#@@@@#..   ",
" . .%.+..+.%. . ",
".&...*%==%*...&.",
".&@@.-;..;-.@@&.",
".&@>@-*--*-@>@&.",
" ..,#*>-->*#,.. ",
"  .'.))**)).'.  ",
"  .'........'.  ",
"   .        .   ",
"                ",
"                "};
