/* XPM */
static char * Tower_xpm[] = {
"48 96 13 1",
" 	c None",
".	c #373737",
"+	c #DFE2E6",
"@	c #D1D5D9",
"#	c #BBBEC2",
"$	c #CED1D5",
"%	c #A0A2A5",
"&	c #D3A061",
"*	c #93674D",
"=	c #50391C",
"-	c #7E7E7E",
";	c #AEB1B4",
">	c #BC8B4D",
" .. .. .. .. ..                                 ",
".++.++.++.++.++.                                ",
".++@++@++@++@++.                                ",
".@@#$$#$$#$$#@@.                                ",
".%%&&&&&&&&&&%%.                                ",
".++*==*==*==*++.                                ",
".++&&&&&&&&&&++.                                ",
".@@*==*==*==*@@.                                ",
".%%&&&&&&&&&&%%.                                ",
".++*++*++*++*++.                                ",
".++#++#++#++#++.                                ",
".$$#$$#$$#$$#$$.                                ",
"..------------..                                ",
" .##;;####%%##.                                 ",
" .#%%##$$#####.                                 ",
" .$$#######$$#.                                 ",
" .. .. .. .. ..  .. .. .. .. ..                 ",
".++.++.++.++.++..++.++.++.++.++.                ",
".++@++@++@++@++..++@++@++@++@++.                ",
".@@#$$#$$#$$#@@..@@#$$#$$#$$#@@.                ",
".%%&&&&&&&&&&%%..%%*&*&*&*&*&%%.                ",
".++*>>>>>>>>*++..++>&>&>&>&>&++.                ",
".++&&&&&&&&&&++..++>&>&>&>&>&++.                ",
".@@*>>>>>>>>*@@..@@>&>&>&>&>&@@.                ",
".%%&&&&&&&&&&%%..%%>&>&>&>&>&%%.                ",
".++*++*++*++*++..++*++&++*++&++.                ",
".++@++&++&++@++..++@++@++@++@++.                ",
".$$#$$>$$>$$#$$..$$#$$#$$#$$#$$.                ",
"..---->**>----....------------..                ",
" .##;;>##>%%##.  .##;;####%%##.                 ",
" .#%%#>**>####.  .#%%##$$#####.                 ",
" .$$##>##>#$$#.  .$$#######$$#.                 ",
"                 .%%&&&&&&&&%%.                 ",
".. .. .. .. ..   .++*>>>>>>*++.                 ",
"++.++.++.++.++.. .++&&&&&&&&++.                 ",
"++@++@++@++@++@$ .@@*>>>>>>*@@.                 ",
"@@#$$#$$#$$#@@## .%%&&&&&&&&%%.                 ",
"&&&&&&&&&&&&&&&& .++*>>>>>>*++.                 ",
">>>>>>>>>>>>>>>> .++&&&&&&&&++.                 ",
"&&&&&&&&&&&&&&&& .@@*>>>>>>*@@.                 ",
">>>>>>>>>>>>>>>> .%%&&&&&&&&%%.                 ",
"&&&&&&&&&&&&&&&& .++*>>>>>>*++.                 ",
"++>++>++>++>++>> .++&&&&&&&&++.                 ",
"++@++@++@++@++@@ .@@*>>>>>>*@@.                 ",
"$$#$$#$$#$$#$$## .%%&&&&&&&&%%.                 ",
"---------------- .++*>>>>>>*++.                 ",
"##%%%##$$####### .++&&&&&&&&++.                 ",
"%$$$#######$$$## .$$*>>>>>>*$$.                 ",
" .. .. .. .. .. ...*..&..&..*......*..&..&..*...",
".++.++.++.++.++..++.++.++.++.++..++.++.++.++.++.",
".++@++@++@++@++..++@++@++@++@++..++@++@++@++@++.",
".@@#$$#$$#$$#@@..@@#$$#$$#$$#@@..@@#$$#$$#$$#@@.",
".%%*&*&*&*&*&%%..%%*&*&*&*&*&%%..%%*&*&*&*&*&%%.",
".++>&>&>&>&>&++..++>&>&>&>&>&++..++>&>&>&>&>&++.",
".++>&>&>&>&>&++..++>&>&>&>&>&++..++>&>&>&>&>&++.",
".@@>&>&>&>&>&@@..@@>&>&>&>&>&@@..@@>&>&>&>&>&@@.",
".%%>&>&>&>&>&%%..%%>&>&>&>&>&%%..%%>&>&>&>&>&%%.",
".++*++&++*++&++..++*++&++*++&++..++*++&++*++&++.",
".++#++#++#++#++..++#++#++#++#++..++@++@++@++@++.",
".$$#$$#$$#$$#$$..$$#$$#$$#$$#$$..$$#$$#$$#$$#$$.",
"..-----..-----....-----..-----....------------..",
" .++;;#..#%%++.  .++;;#..#%%++.  .##;;####%%##. ",
" .++%##..###++.  .++%##..###++.  .#%%##$$#####. ",
" .@@>>>>>>>>@@.  .@@>>>>>>>>@@.  .$$#######$$#. ",
" .....&..&.....  .....&..&..... ...&..&..&..&...",
".++.++.++.++.++..++.++.++.++.++..++.++.++.++.++.",
".++@++@++@++@++..++@++@++@++@++..++@++@++@++@++.",
".@@#$$#$$#$$#@@..@@#$$#$$#$$#@@..@@#$$#$$#$$#@@.",
".%%&*&*&*&*&*%%..%%*&*&*&*&*&%%..%%*&*&*&*&*&%%.",
".++&>&>&>&>&>++..++>&>&>&>&>&++..++>&>&>&>&>&++.",
".++&>&>&>&>&>++..++>&>&>&>&>&++..++>&>&>&>&>&++.",
".@@&>&>&>&>&>@@..@@>&>&>&>&>&@@..@@>&>&>&>&>&@@.",
".%%&>&>&>&>&>%%..%%>&>&>&>&>&%%..%%>&>&>&>&>&%%.",
".++&++*++&++*++..++*++&++*++&++..++*++&++*++&++.",
".++@++@++@++@++..++#++#++#++#++..++@++@++@++@++.",
".$$#$$#$$#$$#$$..$$#$$#$$#$$#$$..$$#$$#$$#$$#$$.",
"..------------....-----..-----....------------..",
" .##%%####;;##.--.++;;#..#%%++.--.##;;####%%##. ",
" .#####$$##%%#.##.++%##..###++.##.#%%##$$#####. ",
" .#$$#######$$.##.@@>>>>>>>>@@.##.$$#######$$#. ",
" .. .. .. .. ..  ..*..&..&..*..  .. .. .. .. .. ",
".++.++.++.++.++..++.++.++.++.++..++.++.++.++.++.",
".++@++@++@++@++..++@++@++@++@++..++@++@++@++@++.",
".@@#$$#$$#$$#@@..@@#$$#$$#$$#@@..@@#$$#$$#$$#@@.",
".%%*&*&*&*&*&%%..%%*&*&*&*&*&%%..%%*&*&*&*&*&%%.",
".++>&>&>&>&>&++..++>&>&>&>&>&++..++>&>&>&>&>&++.",
".++>&>&>&>&>&++..++>&>&>&>&>&++..++>&>&>&>&>&++.",
".@@>&>&>&>&>&@@..@@>&>&>&>&>&@@..@@>&>&>&>&>&@@.",
".%%>&>&>&>&>&%%..%%>&>&>&>&>&%%..%%>&>&>&>&>&%%.",
".++*++&++*++&++..++*++&++*++&++..++*++&++*++&++.",
".++@++@++@++@++..++@++@++@++@++..++@++@++@++@++.",
".$$#$$#$$#$$#$$..$$#$$#$$#$$#$$..$$#$$#$$#$$#$$.",
"..------------....------------....------------..",
" .##;;####%%##.--.##;;####%%##.--.##;;####%%##. ",
" .#%%##$$#####.##.#%%##$$#####.##.#%%##$$#####. ",
" .$$#######$$#.%#.$$#######$$#.%#.$$#######$$#. "};
