/* XPM */
static char * wall_xpm[] = {
"16 15 7 1",
" 	c #A3A491",
".	c #C2CCB3",
"+	c #C9D9BF",
"@	c #D9E8D0",
"#	c #8D8C75",
"$	c #B9BCAA",
"%	c #6F6E6C",
" .++++@@@@+.  ##",
"..+++@@@@++..$++",
"++.+++++++.++...",
"+++.++.++.++++ $",
"+++ ..$.. ++++ $",
"++$   $   $++. #",
".. # $$$ # ..$$#",
"$ # $...$ # $$.+",
"$## ..... ##$.++",
" ###$$$$$### ++.",
"###       ###$$$",
"%#$$    $$$#%#$ ",
"%# $$##$$$ #%%  ",
"#   ##%##   #%# ",
"    #%%%#    %%%"};
