/* XPM */
static char * DeadGrass_xpm[] = {
"48 32 5 1",
" 	c #B6B37B",
".	c #D4C8A1",
"+	c #AEA975",
"@	c #CAC495",
"#	c #C2B781",
"                                                ",
"                                                ",
"                                                ",
"                                                ",
"                     .. ++ ..      .. ++ ..     ",
"                      .. +..        ..+ ..      ",
"                    ++@@@ @          @ @@@++    ",
"                     ++@                @++     ",
"                    ..                    ..    ",
"                    +.@                  @.+    ",
"                     @                    @     ",
"                                                ",
"                                                ",
"                                                ",
"                                                ",
"                                                ",
"################################################",
"################################################",
"################################################",
"################################################",
"################################################",
"######################..#  #..####..#  #..######",
"#######################..# ..######.. #..#######",
"#####################  @@@#@########@#@@@  #####",
"######################  @##############@  ######",
"#####################..##################..#####",
"##################### .@################@. #####",
"######################@##################@######",
"################################################",
"################################################",
"################################################",
"################################################"};
