/* XPM */
static char * PTL_xpm[] = {
"23 23 12 1",
" 	c #FF00FF",
".	c #0000FF",
"+	c #3737FF",
"@	c #5353FF",
"#	c #7373FF",
"$	c #8F8FFF",
"%	c #ABABFF",
"&	c #C7C7FF",
"*	c #1B1BFF",
"=	c #FFFFFF",
"-	c #0000E3",
";	c #E7E7FF",
"        .+.+...        ",
"      ..@##$%#@..      ",
"     .#@###$%#@@+.     ",
"   ..+@###$%&$#@@@..   ",
"   .++@#$&%&%%%$###*   ",
"  .##+@$#%$=&%$$#%#@.  ",
" -.**#$$%&&=&&&%%#$@++ ",
" ..@###%%&&==&&%&%%#@* ",
"-.@###&&&=;===;&&%&%@@.",
"-@#%$%&&;=====;;%%%$#@.",
".%&&;;;;========;&=;&$.",
"-%%;&;&;=========&&&%#.",
".@@%#$&&&====;=;&&=$#@.",
"-.*#@$%%&&;==;;&&%%$$@.",
"-.@@##$%&&&=;;&%$#$$###",
" .+@+@#%$&%;&&&$#$$#$* ",
" -+*@@@$#%$;%%%%$@#$@. ",
"  .+@@##$$$%$$%%@#@#.  ",
"   .*@@####%$$$##@#.   ",
"   ..@@@@@#$$$#@@#..   ",
"     .++@@##@#@++.     ",
"      ...+@@$@@..      ",
"        .......        "};
